<svg width="24" height="24" viewBox="0 0 24 24" fill="none" xmlns="http://www.w3.org/2000/svg">
<g clip-path="url(#clip0_12_74)">
<mask id="mask0_12_74" style="mask-type:alpha" maskUnits="userSpaceOnUse" x="0" y="0" width="24" height="24">
<rect width="24" height="24" fill="#D9D9D9"/>
</mask>
<g mask="url(#mask0_12_74)">
<rect x="1.06604" y="7.33606" width="13.5215" height="10.1411" rx="2" transform="rotate(-23.245 1.06604 7.33606)" fill="#B7CCF7"/>
<line x1="5.08948" y1="10.9521" x2="8.66004" y2="10.9521" stroke="white" stroke-width="1.5" stroke-linecap="round"/>
<path d="M1.62854 9.22337C1.62854 8.10776 2.53292 7.20337 3.64854 7.20337H19.0657C20.1703 7.20337 21.0657 8.0988 21.0657 9.20337V18.7249C21.0657 19.8294 20.1703 20.7249 19.0657 20.7249H3.62854C2.52397 20.7249 1.62854 19.8294 1.62854 18.7249V9.22337Z" fill="#4C67F1"/>
<path d="M15.0242 11.4993H22.7996V16.3593H15.0242C14.5935 16.3593 14.1803 16.1881 13.8757 15.8836C13.5711 15.579 13.4 15.1658 13.4 14.7351V13.1241C13.3999 12.9107 13.4419 12.6995 13.5235 12.5023C13.6051 12.3052 13.7247 12.1261 13.8755 11.9752C14.0264 11.8243 14.2054 11.7046 14.4025 11.623C14.5996 11.5413 14.8109 11.4993 15.0242 11.4993Z" fill="#7D9DFF"/>
<path d="M15.9398 15.3815C16.7427 15.3815 17.3936 14.7306 17.3936 13.9277C17.3936 13.1248 16.7427 12.4739 15.9398 12.4739C15.1369 12.4739 14.486 13.1248 14.486 13.9277C14.486 14.7306 15.1369 15.3815 15.9398 15.3815Z" fill="#466CFB"/>
</g>
</g>
<defs>
<clipPath id="clip0_12_74">
<rect width="24" height="24" fill="white"/>
</clipPath>
</defs>
</svg>
