<svg width="40" height="40" viewBox="0 0 40 40" fill="none" xmlns="http://www.w3.org/2000/svg">
<g clip-path="url(#clip0_3_38567)">
<path d="M20 40C31.0457 40 40 31.0457 40 20C40 8.9543 31.0457 0 20 0C8.9543 0 0 8.9543 0 20C0 31.0457 8.9543 40 20 40Z" fill="#F0F0F0"/>
<path d="M39.8833 22.1741L39.8824 22.1729L39.8822 22.1741H39.8833Z" fill="#0052B4"/>
<path d="M39.882 22.1737C39.882 22.1735 39.8821 22.1734 39.8821 22.1731L17.9489 0.10376C16.9595 0.204619 15.9912 0.377588 15.0498 0.617354C6.39828 2.82009 0 19.9998 0 19.9998C0 19.9998 27.9998 38.7369 31.1941 36.5751C31.8333 36.1426 32.4461 35.6741 33.0295 35.1725L20.0309 22.1737H39.882Z" fill="#0052B4"/>
<path d="M34.7826 20.0002L15.3316 0.549316C6.53812 2.65221 0 10.562 0 20.0002C0 31.0458 8.95437 40.0002 20 40.0002C24.1898 40.0002 28.0779 38.711 31.2913 36.5089L14.7826 20.0002H34.7826Z" fill="#D80027"/>
<path d="M19.021 29.5312L16.5784 28.3823L17.8791 26.0167L15.2268 26.5241L14.8907 23.8446L13.0432 25.8153L11.1958 23.8446L10.8596 26.5241L8.20738 26.0166L9.50809 28.3823L7.06543 29.5312L9.50809 30.68L8.20738 33.0456L10.8598 32.5383L11.1957 35.2177L13.0432 33.2469L14.8907 35.2177L15.2268 32.5383L17.879 33.0457L16.5783 30.6802L19.021 29.5312Z" fill="#F0F0F0"/>
<path d="M17.3908 11.0927L15.6142 10.2572L16.5602 8.53663L14.6311 8.90569L14.3866 6.95679L13.043 8.39015L11.6993 6.95679L11.4548 8.90569L9.52561 8.53663L10.4717 10.2572L8.69507 11.0927L13.043 11.9624L17.3908 11.0927Z" fill="#F0F0F0"/>
<path d="M18.2608 11.0925C18.2608 13.974 15.9248 16.31 13.0433 16.31C10.1619 16.31 7.82593 13.974 7.82593 11.0925" fill="#F0F0F0"/>
</g>
<defs>
<clipPath id="clip0_3_38567">
<rect width="40" height="40" fill="white"/>
</clipPath>
</defs>
</svg>
