<svg width="28" height="22" viewBox="0 0 28 22" fill="none" xmlns="http://www.w3.org/2000/svg">
<path d="M4.70801 21.1182L3.72656 21.7725L0 16.1826L0.980469 15.5283L4.70801 21.1182ZM6.10547 20.1865L5.12402 20.8408L3.5332 18.4541L4.51367 17.7998L6.10547 20.1865ZM7.50293 19.2549L6.52148 19.9092L2.79492 14.3184L3.77539 13.665L7.50293 19.2549ZM3.96875 16.9834L2.98828 17.6367L1.39746 15.25L2.37793 14.5967L3.96875 16.9834ZM25.2051 7.45312L24.2246 8.10742L22.6328 5.7207L23.6143 5.06738L25.2051 7.45312ZM26.6025 6.52148L25.6221 7.17578L21.8945 1.58594L22.876 0.931641L26.6025 6.52148ZM28 5.58984L27.0195 6.24414L25.4277 3.85742L26.4092 3.2041L28 5.58984ZM23.0693 4.25L22.0879 4.90332L20.4971 2.51758L21.4785 1.86328L23.0693 4.25ZM25.8643 2.38672L24.8828 3.04004L23.292 0.654297L24.2734 0L25.8643 2.38672Z" fill="black"/>
</svg>
