<svg width="28" height="22" viewBox="0 0 28 22" fill="none" xmlns="http://www.w3.org/2000/svg">
<path d="M25.8633 19.3857L24.2734 21.7725L23.292 21.1182L24.8828 18.7314L25.8633 19.3857ZM24.4658 18.4541L22.876 20.8408L21.8945 20.1865L23.4854 17.8008L24.4658 18.4541ZM23.0684 17.5225L21.4785 19.9092L20.4971 19.2549L22.0869 16.8691L23.0684 17.5225ZM28 16.1816L26.4082 18.5684L25.4277 17.915L27.0195 15.5283L28 16.1816ZM26.6025 15.25L25.0107 17.6367L24.0303 16.9834L25.6221 14.5967L26.6025 15.25ZM25.2051 14.3184L23.6133 16.7051L22.6328 16.0518L24.2246 13.665L25.2051 14.3184ZM7.50293 2.51758L3.77539 8.10742L2.79492 7.45312L6.52148 1.86328L7.50293 2.51758ZM6.10547 1.58594L2.37793 7.17578L1.39746 6.52148L5.12402 0.931641L6.10547 1.58594ZM4.70801 0.654297L0.980469 6.24414L0 5.58984L3.72656 0L4.70801 0.654297Z" fill="black"/>
</svg>
