<svg width="17" height="12" viewBox="0 0 17 12" fill="none" xmlns="http://www.w3.org/2000/svg">
<path d="M6.11523 8.91895C7.535 7.6932 9.61432 7.69336 11.0342 8.91895C11.1056 8.98488 11.1474 9.07847 11.1494 9.17676C11.1513 9.27492 11.1136 9.3697 11.0449 9.43848L8.82129 11.7285C8.75619 11.7956 8.66774 11.8339 8.5752 11.834C8.48248 11.834 8.3933 11.7958 8.32812 11.7285L6.10449 9.43848C6.0359 9.36966 5.99808 9.27489 6 9.17676C6.00204 9.07847 6.04375 8.98483 6.11523 8.91895ZM3.10938 6.17773C6.16836 3.27337 10.9058 3.27346 13.9648 6.17773C14.0338 6.24578 14.0732 6.33959 14.0742 6.4375C14.0752 6.53552 14.0374 6.62969 13.9697 6.69922L12.6846 8.02539C12.5521 8.1605 12.3379 8.16295 12.2021 8.03125C11.1977 7.10303 9.89108 6.58883 8.53613 6.58887C7.18195 6.58944 5.87592 7.10351 4.87207 8.03125C4.73624 8.16299 4.52211 8.16064 4.38965 8.02539L3.10449 6.69922C3.03686 6.62982 2.99909 6.5354 3 6.4375C3.001 6.33959 3.04036 6.24576 3.10938 6.17773ZM0.107422 3.44238C4.79934 -1.1474 12.2016 -1.1474 16.8936 3.44238C16.9612 3.51047 16.9994 3.60325 17 3.7002C17.0006 3.79728 16.9634 3.891 16.8965 3.95996L15.6094 5.28613C15.4768 5.42201 15.2615 5.42294 15.127 5.28906C13.3395 3.55453 10.9673 2.58715 8.50098 2.58691C6.03421 2.58691 3.66088 3.55422 1.87305 5.28906C1.73852 5.42319 1.52312 5.42235 1.39062 5.28613L0.103516 3.95996C0.0365987 3.89094 -0.000625904 3.79731 0 3.7002C0.000673791 3.60306 0.0395415 3.51047 0.107422 3.44238Z" fill="black"/>
</svg>
