<svg width="17" height="12" viewBox="0 0 17 12" fill="none" xmlns="http://www.w3.org/2000/svg">
<path d="M6.11523 8.9189C7.535 7.69315 9.61432 7.69331 11.0342 8.9189C11.1056 8.98484 11.1474 9.07842 11.1494 9.17671C11.1513 9.27488 11.1136 9.36965 11.0449 9.43843L8.82129 11.7285C8.75619 11.7956 8.66774 11.8339 8.5752 11.8339C8.48248 11.8339 8.3933 11.7958 8.32812 11.7285L6.10449 9.43843C6.0359 9.36962 5.99808 9.27485 6 9.17671C6.00204 9.07842 6.04375 8.98479 6.11523 8.9189ZM3.10938 6.17769C6.16836 3.27332 10.9058 3.27342 13.9648 6.17769C14.0338 6.24573 14.0732 6.33955 14.0742 6.43745C14.0752 6.53547 14.0374 6.62964 13.9697 6.69917L12.6846 8.02534C12.5521 8.16045 12.3379 8.1629 12.2021 8.0312C11.1977 7.10298 9.89108 6.58878 8.53613 6.58882C7.18195 6.58939 5.87592 7.10346 4.87207 8.0312C4.73624 8.16295 4.52211 8.1606 4.38965 8.02534L3.10449 6.69917C3.03686 6.62977 2.99909 6.53535 3 6.43745C3.001 6.33954 3.04036 6.24571 3.10938 6.17769ZM0.107422 3.44234C4.79934 -1.14745 12.2016 -1.14745 16.8936 3.44234C16.9612 3.51042 16.9994 3.60321 17 3.70015C17.0006 3.79724 16.9634 3.89095 16.8965 3.95992L15.6094 5.28609C15.4768 5.42196 15.2615 5.4229 15.127 5.28902C13.3395 3.55448 10.9673 2.5871 8.50098 2.58687C6.03421 2.58686 3.66088 3.55417 1.87305 5.28902C1.73852 5.42315 1.52312 5.4223 1.39062 5.28609L0.103516 3.95992C0.0365987 3.8909 -0.000625904 3.79726 0 3.70015C0.000673791 3.60301 0.0395415 3.51042 0.107422 3.44234Z" fill="black"/>
</svg>
